<svg width="185" height="38" viewBox="0 0 185 38" fill="none" xmlns="http://www.w3.org/2000/svg">
<path d="M47 37V2H60.15C71.5 2 79.05 8.75 79.05 19.4C79.05 30.05 71.5 37 60.15 37H47ZM56.2 29.3H60.15C66.1 29.3 69.65 25.95 69.65 19.4C69.65 12.85 66.15 9.7 60.15 9.7H56.2V29.3Z" fill="white"/>
<path d="M81.6387 37V11.2H90.2887V37H81.6387ZM85.9387 8.9C83.3387 8.9 81.3887 7 81.3887 4.45C81.3887 1.9 83.3387 0 85.9387 0C88.5387 0 90.4887 1.9 90.4887 4.45C90.4887 7 88.5387 8.9 85.9387 8.9Z" fill="white"/>
<path d="M105.469 37.3C98.0187 37.3 92.9688 33.95 92.6188 28.6H100.719C101.019 30.3 102.569 31.45 105.569 31.45C108.169 31.45 109.719 30.7 109.719 29.25C109.719 27.85 108.319 27.7 104.519 27.3C98.1187 26.65 93.1188 25.25 93.1188 19.7C93.1188 14.35 97.6687 10.9 104.769 10.9C112.269 10.9 117.319 14.05 117.619 19.1H109.519C109.319 17.5 107.669 16.75 105.119 16.75C102.819 16.75 101.369 17.45 101.369 18.75C101.369 20.15 102.769 20.45 106.519 20.85C112.919 21.55 117.969 22.7 117.969 28.6C117.969 33.9 113.069 37.3 105.469 37.3Z" fill="white"/>
<path d="M130.012 37C125.112 37 122.262 34.4 122.262 29.25V18.35H118.213V11.2H122.262V3.95H130.912V11.2H136.463V18.35H130.912V27.5C130.912 29.15 131.613 29.85 133.263 29.85H136.463V37H130.012Z" fill="white"/>
<path d="M139.039 37V11.2H146.639L147.339 15C148.789 12.6 150.839 11.2 154.589 11.2H156.189V18.85H152.939C149.389 18.85 147.689 20.8 147.689 24.6V37H139.039Z" fill="white"/>
<path d="M170.617 37.3C162.017 37.3 156.567 32.1 156.567 24.1C156.567 16.1 162.017 10.9 170.617 10.9C179.217 10.9 184.667 16.1 184.667 24.1C184.667 32.1 179.217 37.3 170.617 37.3ZM170.617 30.4C173.967 30.4 175.867 27.85 175.867 24.1C175.867 20.35 173.967 17.8 170.617 17.8C167.267 17.8 165.367 20.35 165.367 24.1C165.367 27.85 167.267 30.4 170.617 30.4Z" fill="white"/>
<path fill-rule="evenodd" clip-rule="evenodd" d="M31.35 4.11111C32.2613 4.11111 33 4.84735 33 5.75556V35.3556C33 36.2638 32.2613 37 31.35 37H1.65C0.73873 37 1.3288e-08 36.2638 0 35.3556V5.75556C2.12608e-07 4.84735 0.73873 4.11111 1.65 4.11111H31.35ZM16.5 13.9778C12.8549 13.9778 9.9 16.9227 9.9 20.5556C9.9 24.1884 12.8549 27.1333 16.5 27.1333C20.1451 27.1333 23.1 24.1884 23.1 20.5556C23.1 16.9227 20.1451 13.9778 16.5 13.9778Z" fill="#E96263"/>
<path d="M3.3 1.64444C3.3 0.736243 4.03873 0 4.95 0H28.05C28.9613 0 29.7 0.736243 29.7 1.64444V2.46667H3.3V1.64444Z" fill="#E96263" fill-opacity="0.5"/>
</svg>
